<?xml version="1.0" encoding="UTF-8"?><svg id="Capa_1" xmlns="http://www.w3.org/2000/svg" viewBox="0 0 569.9 352.44"><defs><style>.cls-1{fill:#191d88;}.cls-1,.cls-2{stroke-width:0px;}.cls-2{fill:#ffc436;}</style></defs><path class="cls-1" d="m85.64,321.11c.3.28.53.61.68.99s.23.75.23,1.13-.08.75-.23,1.13-.38.71-.68.99c-.62.62-1.37.93-2.23.93-.79,0-1.49-.28-2.09-.85-1.24-1.23-2.62-2.14-4.11-2.74-1.5-.6-3.05-.91-4.65-.91s-3.2.32-4.67.95-2.76,1.5-3.87,2.6-1.99,2.4-2.64,3.89c-.65,1.49-.98,3.1-.98,4.83,0,1.64.31,3.2.92,4.67.61,1.47,1.46,2.77,2.54,3.89s2.36,2.02,3.83,2.69c1.47.67,3.06,1,4.78,1,1.55,0,2.99-.2,4.33-.59,1.34-.4,2.61-1.1,3.82-2.12v-3.99h-4.27c-.42,0-.81-.08-1.19-.25-.38-.17-.7-.4-.96-.68-.26-.28-.47-.61-.64-.99-.16-.38-.24-.77-.24-1.19s.08-.8.24-1.17.37-.69.64-.96c.27-.27.59-.49.96-.65.38-.16.77-.24,1.19-.24h7.32c.43,0,.84.08,1.22.24.38.16.71.37.99.64.28.26.5.58.66.95.16.37.24.77.24,1.2v8.45c0,.49-.1.91-.28,1.27-.19.36-.43.7-.73,1.02-2.09,1.87-4.26,3.2-6.5,4.01-2.24.81-4.56,1.21-6.96,1.19-1.62,0-3.19-.22-4.71-.66-1.52-.44-2.95-1.06-4.28-1.85s-2.56-1.74-3.68-2.85-2.06-2.35-2.85-3.7c-.79-1.36-1.41-2.82-1.85-4.38-.44-1.56-.66-3.2-.66-4.89,0-2.51.47-4.88,1.4-7.11.93-2.23,2.22-4.19,3.86-5.87,1.64-1.68,3.57-3.01,5.78-3.99,2.21-.98,4.6-1.47,7.17-1.47s4.94.46,7.14,1.37,4.21,2.28,6.04,4.08Z"/><path class="cls-1" d="m114.14,318.99c0-.43.08-.84.24-1.21s.38-.7.65-.98c.27-.27.6-.49.98-.65s.77-.24,1.19-.24h10.38c1.86,0,3.62.33,5.26,1,1.64.67,3.08,1.59,4.31,2.77,1.23,1.18,2.21,2.57,2.91,4.18.71,1.61,1.06,3.35,1.06,5.22,0,1.26-.17,2.47-.51,3.63-.34,1.16-.82,2.22-1.44,3.19-.62.97-1.36,1.85-2.22,2.63s-1.81,1.45-2.87,1.99l5.23,6.3c.32.3.56.65.71,1.03s.22.78.21,1.17-.09.78-.24,1.16c-.15.38-.38.71-.68.99-.3.3-.63.52-.98.66-.35.14-.7.21-1.06.21-.77,0-1.45-.29-2.04-.88l-7.86-9.13h-7.1v7.01c0,.42-.08.81-.24,1.19s-.38.7-.66.96c-.28.26-.61.48-.98.64-.37.16-.77.24-1.2.24s-.81-.08-1.19-.24c-.38-.16-.7-.37-.98-.64-.27-.26-.49-.58-.65-.96s-.24-.77-.24-1.19v-30.08Zm6.13,3.05v13.85h7.35c1.02,0,1.98-.18,2.87-.54.9-.36,1.67-.84,2.33-1.46.66-.61,1.18-1.33,1.57-2.16s.58-1.72.58-2.66-.19-1.87-.58-2.73-.91-1.61-1.57-2.25c-.66-.64-1.44-1.14-2.33-1.51-.89-.37-1.84-.55-2.84-.55h-7.38Z"/><path class="cls-1" d="m172.58,336.35c0,1.4.28,2.7.85,3.9.57,1.21,1.33,2.26,2.29,3.15.96.89,2.07,1.6,3.34,2.12s2.58.78,3.96.78,2.67-.26,3.87-.78c1.21-.52,2.25-1.23,3.14-2.12.89-.89,1.59-1.95,2.11-3.15.52-1.21.78-2.51.78-3.9v-17.41c0-.43.08-.83.24-1.2s.38-.69.66-.96c.28-.27.61-.49.99-.64.38-.15.77-.23,1.19-.23s.83.08,1.2.23c.37.15.69.36.96.64s.49.59.65.96.24.77.24,1.2v17.41c0,2.21-.42,4.29-1.26,6.25s-1.98,3.67-3.43,5.12-3.15,2.6-5.1,3.45-4.04,1.27-6.26,1.27-4.33-.42-6.33-1.27c-2-.85-3.75-2-5.27-3.45-1.52-1.45-2.72-3.16-3.61-5.12-.89-1.96-1.33-4.04-1.33-6.25v-17.36c0-.43.08-.83.24-1.2.16-.37.38-.69.65-.96.27-.27.6-.49.98-.65s.77-.24,1.19-.24c.43,0,.83.08,1.2.24s.69.38.98.65c.28.27.5.59.66.96.16.37.24.77.24,1.2v17.36Z"/><path class="cls-1" d="m239.56,315.91c1.88,0,3.65.35,5.29,1.06s3.07,1.67,4.3,2.88c1.22,1.21,2.19,2.65,2.9,4.3s1.06,3.41,1.06,5.27-.35,3.61-1.06,5.23-1.67,3.04-2.9,4.26c-1.23,1.21-2.66,2.17-4.31,2.87s-3.42,1.05-5.3,1.05h-7.27v6.25c0,.42-.08.81-.24,1.19s-.38.7-.66.96c-.28.26-.61.48-.98.64-.37.16-.77.24-1.2.24s-.81-.08-1.19-.24c-.38-.16-.7-.37-.98-.64-.27-.26-.49-.58-.65-.96s-.24-.77-.24-1.19v-30.08c0-.43.08-.84.24-1.21s.38-.7.65-.98c.27-.27.6-.49.98-.65s.77-.24,1.19-.24h10.38Zm-7.29,6.13v14.65h7.38c1.02,0,1.97-.2,2.87-.59.89-.4,1.67-.93,2.33-1.6.66-.67,1.18-1.44,1.56-2.32.38-.88.57-1.79.57-2.76s-.19-1.88-.58-2.77-.91-1.67-1.57-2.36c-.66-.69-1.43-1.23-2.32-1.64-.89-.41-1.84-.61-2.85-.61h-7.38Z"/><path class="cls-1" d="m295.71,315.65c2.54,0,4.94.48,7.18,1.44,2.24.96,4.2,2.28,5.87,3.94,1.67,1.67,2.98,3.62,3.94,5.85.96,2.23,1.44,4.62,1.44,7.17,0,1.7-.22,3.33-.66,4.89-.44,1.56-1.06,3.02-1.85,4.38-.79,1.36-1.75,2.6-2.88,3.72-1.13,1.12-2.38,2.08-3.73,2.88s-2.82,1.42-4.4,1.85-3.21.65-4.91.65c-2.55,0-4.93-.48-7.17-1.44-2.23-.96-4.17-2.28-5.82-3.94-1.65-1.67-2.95-3.61-3.9-5.84-.95-2.22-1.43-4.61-1.43-7.15,0-1.7.22-3.33.65-4.89.43-1.56,1.05-3.03,1.84-4.4.79-1.37,1.74-2.61,2.85-3.73,1.11-1.12,2.35-2.08,3.71-2.87,1.36-.79,2.82-1.41,4.38-1.85s3.2-.66,4.89-.66Zm.03,6.13c-1.7,0-3.28.32-4.76.96-1.48.64-2.77,1.52-3.87,2.63s-1.98,2.41-2.62,3.9c-.64,1.49-.96,3.08-.96,4.78s.32,3.32.96,4.81,1.51,2.78,2.62,3.89c1.1,1.1,2.39,1.97,3.87,2.6s3.07.95,4.76.95,3.29-.31,4.79-.95c1.5-.63,2.8-1.5,3.9-2.6,1.1-1.1,1.98-2.4,2.62-3.89s.96-3.09.96-4.81-.32-3.29-.96-4.78c-.64-1.49-1.51-2.79-2.62-3.9s-2.4-1.99-3.9-2.63c-1.5-.64-3.1-.96-4.79-.96Z"/><path class="cls-1" d="m403.56,321.11c.3.28.53.61.68.99s.23.75.23,1.13-.08.75-.23,1.13-.38.71-.68.99c-.62.62-1.37.93-2.23.93-.79,0-1.49-.28-2.09-.85-1.24-1.23-2.62-2.14-4.11-2.74-1.5-.6-3.05-.91-4.65-.91s-3.2.32-4.67.95-2.76,1.5-3.87,2.6-1.99,2.4-2.64,3.89c-.65,1.49-.98,3.1-.98,4.83,0,1.64.31,3.2.92,4.67.61,1.47,1.46,2.77,2.54,3.89s2.36,2.02,3.83,2.69c1.47.67,3.06,1,4.78,1,1.55,0,2.99-.2,4.33-.59,1.34-.4,2.61-1.1,3.82-2.12v-3.99h-4.27c-.42,0-.81-.08-1.19-.25-.38-.17-.7-.4-.96-.68-.26-.28-.47-.61-.64-.99-.16-.38-.24-.77-.24-1.19s.08-.8.24-1.17.37-.69.64-.96c.27-.27.59-.49.96-.65.38-.16.77-.24,1.19-.24h7.32c.43,0,.84.08,1.22.24.38.16.71.37.99.64.28.26.5.58.66.95.16.37.24.77.24,1.2v8.45c0,.49-.1.91-.28,1.27-.19.36-.43.7-.73,1.02-2.09,1.87-4.26,3.2-6.5,4.01-2.24.81-4.56,1.21-6.96,1.19-1.62,0-3.19-.22-4.71-.66-1.52-.44-2.95-1.06-4.28-1.85s-2.56-1.74-3.68-2.85-2.06-2.35-2.85-3.7c-.79-1.36-1.41-2.82-1.85-4.38-.44-1.56-.66-3.2-.66-4.89,0-2.51.47-4.88,1.4-7.11.93-2.23,2.22-4.19,3.86-5.87,1.64-1.68,3.57-3.01,5.78-3.99,2.21-.98,4.6-1.47,7.17-1.47s4.94.46,7.14,1.37,4.21,2.28,6.04,4.08Z"/><path class="cls-1" d="m432.06,318.99c0-.43.08-.84.24-1.21s.38-.7.65-.98c.27-.27.6-.49.98-.65s.77-.24,1.19-.24h10.38c1.86,0,3.62.33,5.26,1,1.64.67,3.08,1.59,4.31,2.77,1.23,1.18,2.21,2.57,2.91,4.18.71,1.61,1.06,3.35,1.06,5.22,0,1.26-.17,2.47-.51,3.63-.34,1.16-.82,2.22-1.44,3.19-.62.97-1.36,1.85-2.22,2.63s-1.81,1.45-2.87,1.99l5.23,6.3c.32.3.56.65.71,1.03s.22.78.21,1.17-.09.78-.24,1.16c-.15.38-.38.71-.68.99-.3.3-.63.52-.98.66-.35.14-.7.21-1.06.21-.77,0-1.45-.29-2.04-.88l-7.86-9.13h-7.1v7.01c0,.42-.08.81-.24,1.19s-.38.7-.66.96c-.28.26-.61.48-.98.64-.37.16-.77.24-1.2.24s-.81-.08-1.19-.24c-.38-.16-.7-.37-.98-.64-.27-.26-.49-.58-.65-.96s-.24-.77-.24-1.19v-30.08Zm6.13,3.05v13.85h7.35c1.02,0,1.98-.18,2.87-.54.9-.36,1.67-.84,2.33-1.46.66-.61,1.18-1.33,1.57-2.16s.58-1.72.58-2.66-.19-1.87-.58-2.73-.91-1.61-1.57-2.25c-.66-.64-1.44-1.14-2.33-1.51-.89-.37-1.84-.55-2.84-.55h-7.38Z"/><path class="cls-1" d="m514.5,321.11c.3.28.53.61.68.99s.23.75.23,1.13-.08.75-.23,1.13-.38.71-.68.99c-.62.62-1.37.93-2.23.93-.79,0-1.49-.28-2.09-.85-1.24-1.23-2.62-2.14-4.11-2.74-1.5-.6-3.05-.91-4.65-.91s-3.2.32-4.67.95-2.76,1.5-3.87,2.6-1.99,2.4-2.64,3.89c-.65,1.49-.98,3.1-.98,4.83,0,1.64.31,3.2.92,4.67.61,1.47,1.46,2.77,2.54,3.89s2.36,2.02,3.83,2.69c1.47.67,3.06,1,4.78,1,1.55,0,2.99-.2,4.33-.59,1.34-.4,2.61-1.1,3.82-2.12v-3.99h-4.27c-.42,0-.81-.08-1.19-.25-.38-.17-.7-.4-.96-.68-.26-.28-.47-.61-.64-.99-.16-.38-.24-.77-.24-1.19s.08-.8.24-1.17.37-.69.64-.96c.27-.27.59-.49.96-.65.38-.16.77-.24,1.19-.24h7.32c.43,0,.84.08,1.22.24.38.16.71.37.99.64.28.26.5.58.66.95.16.37.24.77.24,1.2v8.45c0,.49-.1.91-.28,1.27-.19.36-.43.7-.73,1.02-2.09,1.87-4.26,3.2-6.5,4.01-2.24.81-4.56,1.21-6.96,1.19-1.62,0-3.19-.22-4.71-.66-1.52-.44-2.95-1.06-4.28-1.85s-2.56-1.74-3.68-2.85-2.06-2.35-2.85-3.7c-.79-1.36-1.41-2.82-1.85-4.38-.44-1.56-.66-3.2-.66-4.89,0-2.51.47-4.88,1.4-7.11.93-2.23,2.22-4.19,3.86-5.87,1.64-1.68,3.57-3.01,5.78-3.99,2.21-.98,4.6-1.47,7.17-1.47s4.94.46,7.14,1.37,4.21,2.28,6.04,4.08Z"/><path class="cls-1" d="m439.45,22.24c3.94,8.01,6.9,15.69,8.94,23.08h120.89L532.42,1.06h-110.77c7.05,5.09,13.26,11.95,17.8,21.17Z"/><path class="cls-2" d="m443.85,108.86v42.83h69.5v63.54c-13.28.49-29.66.05-44.89,0-25.57-.06-26.55-.24-28.84-.25-4.79-.04-19.58-2.92-32.82-13.96-8.59-7.15-25.94-47.11-25.94-47.11,8.61-1.25,19.34-6.59,27.1-15.22,24.26-26.95,27.71-70.73,9.9-105.37C399.23-2.96,347.85.03,330.76.08h-119.43l37.68,45.23,75.96-.02c24.55,0,29.47,9.66,33.14,13.05,7.62,11.13,7.77,37.28-1.62,46.18-7.2,6.83-13.59,11.55-28.51,12.27h-65.43l20.75,40.83h33.95l18.88,39.68c2.38,5.05,13.4,27.08,31.25,42.69,13.06,11.42,31.19,15.5,46.11,17.25,17.56,2.05,33.34,1.36,54.83,1.4.59,0,101.56,0,101.56,0V108.86h-126.04Z"/><path class="cls-1" d="m237.49,116.8h-98.65v40.83h62.7v57.6s-55.32-.22-57.49-.25c-1.37-.1-2.72-.23-4.07-.39-42.17-5.09-74.85-40.98-74.85-84.52h0c0-39.37,26.72-72.48,63.01-82.23,7.07-1.9,14.49-2.93,22.16-2.93l70.43.41L183.85,1.07h0s-.12,0-.12,0h-57.88s.05.04.07.05c-12.24.27-24.06,2.23-35.22,5.68-23.16,7.16-43.5,20.7-59.03,38.53C14.64,64.87,3.4,89.57.66,116.8c-.43,4.29-.66,8.65-.66,13.06h0c0,9.54,1.07,18.82,3.03,27.77,12.7,57.78,64.17,101.02,125.76,101.02h129.44v-101.02l-20.75-40.83Z"/></svg>